<svg id="light" enable-background="new 0 0 24 24" height="512" viewBox="0 0 24 24" width="512" xmlns="http://www.w3.org/2000/svg"><path d="m9.093 8.837c-1.052 0-2.131-.396-2.949-1.183-.857-.823-1.065-1.862-1.285-2.962-.244-1.224-.497-2.49-1.706-3.652-.14-.135-.189-.34-.126-.523.064-.185.229-.316.423-.334l.137-.014c2.484-.253 5.575-.559 8.003 1.774.769.738 1.234 1.871 1.245 3.028.011 1.102-.376 2.102-1.09 2.814-.703.703-1.665 1.052-2.652 1.052zm-4.568-7.754c.864 1.152 1.101 2.342 1.315 3.414.196.981.365 1.83.996 2.437 1.071 1.028 3.015 1.333 4.201.146.522-.521.805-1.267.797-2.098-.009-.895-.359-1.761-.938-2.317-1.853-1.781-4.195-1.774-6.371-1.582z"/><path d="m18.017 7c-.07 0-.141-.002-.211-.007-.812-.048-1.517-.37-1.986-.907-1.336-1.529-.894-3.618.282-4.677 1.983-1.785 4.41-1.467 6.358-1.21l.105.014c.193.025.354.161.413.348.058.187.002.39-.143.521-.942.848-1.166 1.807-1.382 2.734-.193.827-.392 1.682-1.105 2.324-.608.546-1.467.86-2.331.86zm2.112-6.001c-1.18 0-2.353.247-3.359 1.154-.824.741-1.133 2.204-.198 3.274.292.334.751.535 1.293.567.668.035 1.35-.185 1.813-.6.48-.432.622-1.039.801-1.808.175-.753.384-1.646 1.008-2.502-.447-.048-.904-.085-1.358-.085zm-3.693.782h.01z"/><path d="m13.629 12.06c-.236 0-.447-.168-.491-.409-.658-3.555-4.038-6.482-4.073-6.511-.21-.179-.234-.495-.055-.704.179-.211.494-.237.705-.056.15.128 3.683 3.18 4.407 7.089.05.271-.129.532-.401.582-.031.006-.061.009-.092.009z"/><path d="m3.5 22h-3c-.276 0-.5-.224-.5-.5v-9c0-.276.224-.5.5-.5 3.401 0 5.198 1.146 5.273 1.195.179.117.264.335.212.542l-2 7.886c-.057.222-.256.377-.485.377zm-2.5-1h2.111l1.809-7.13c-.563-.269-1.889-.786-3.92-.861z"/><path d="m13 24c-2.36 0-6.923-1.984-9.434-3.168-.25-.117-.356-.416-.239-.665.117-.251.416-.356.666-.239 1.96.924 6.76 3.072 9.007 3.072 2.432 0 8.165-2.857 9.814-3.706-.26-.34-.797-.794-1.814-.794-.923 0-2.093.369-3.225.727-1.203.379-2.448.773-3.525.773-2.064 0-4.805-.988-4.921-1.03-.259-.094-.393-.381-.299-.641.094-.259.38-.392.641-.299.026.01 2.692.97 4.579.97.923 0 2.093-.369 3.225-.727 1.203-.379 2.448-.773 3.525-.773 2.333 0 2.949 1.767 2.974 1.842.077.231-.023.484-.239.6-.311.164-7.646 4.058-10.735 4.058z"/><path d="m16.5 19.59c-.276 0-.5-.224-.5-.5v-.5c0-.698-.47-1.296-1.144-1.452l-9.654-2.331c-.269-.065-.434-.335-.369-.604.064-.27.339-.429.603-.369l9.65 2.33c1.126.263 1.914 1.261 1.914 2.426v.5c0 .276-.224.5-.5.5z"/><path d="m13.63 12.058c-.001 0-.002 0-.003 0-.275-.002-.498-.225-.497-.5 0-.173.063-4.247 4.612-6.986.236-.142.543-.067.686.171.143.236.066.544-.17.687-4.047 2.437-4.126 5.983-4.127 6.133-.003.273-.226.495-.501.495z"/></svg>