<svg height="512pt" viewBox="0 -80 512 512" width="512pt" xmlns="http://www.w3.org/2000/svg"><path d="m24 120.03125c-4.425781 0-8-3.574219-8-8v-30.933594c0-4.425781 3.574219-8 8-8s8 3.574219 8 8v30.933594c0 4.425781-3.574219 8-8 8zm0 0"/><path d="m136 120.03125c-4.425781 0-8-3.574219-8-8v-36c0-4.421875 3.574219-8 8-8s8 3.578125 8 8v36c0 4.425781-3.574219 8-8 8zm0 0"/><path d="m136 84.03125c-4.425781 0-8-3.574219-8-8 0-28.671875-23.328125-52-52.007812-52-28.671876 0-51.992188 23.328125-51.992188 52 0 4.425781-3.574219 8-8 8s-8-3.574219-8-8c0-37.496094 30.503906-68 67.992188-68 37.503906 0 68.007812 30.503906 68.007812 68 0 4.425781-3.574219 8-8 8zm0 0"/><path d="m136.007812 95c-2.40625 0-4.785156-1.078125-6.359374-3.136719-15.449219-20.175781-19.65625-18.503906-35.3125-12.304687-15.023438 5.953125-37.726563 14.953125-79.582032 8.335937-4.363281-.6875-7.347656-4.78125-6.648437-9.152343.679687-4.359376 4.796875-7.359376 9.152343-6.644532 37.535157 5.925782 56.980469-1.792968 71.191407-7.417968 19.269531-7.640626 32.199219-10.902344 53.902343 17.449218 2.6875 3.503906 2.023438 8.527344-1.488281 11.214844-1.449219 1.121094-3.160156 1.65625-4.855469 1.65625zm0 0"/><path d="m103.992188 75.847656c-1.175782 0-2.382813-.261718-3.511719-.824218-3.96875-1.945313-5.601563-6.742188-3.65625-10.703126l16-32.578124c1.945312-3.972657 6.71875-5.597657 10.703125-3.652344 3.96875 1.941406 5.601562 6.742187 3.65625 10.703125l-16 32.574219c-1.390625 2.832031-4.238282 4.480468-7.191406 4.480468zm0 0"/><path d="m8 224c-4.425781 0-8-3.574219-8-8 0-17.648438 14.351562-32 32-32 4.425781 0 8 3.574219 8 8s-3.574219 8-8 8c-8.824219 0-16 7.175781-16 16 0 4.425781-3.574219 8-8 8zm0 0"/><path d="m56 200.046875h-24c-4.425781 0-8-3.574219-8-8 0-4.421875 3.574219-8 8-8h24c4.425781 0 8 3.578125 8 8 0 4.425781-3.574219 8-8 8zm0 0"/><path d="m8 256.03125c-4.425781 0-8-3.574219-8-8v-32.03125c0-4.425781 3.574219-8 8-8s8 3.574219 8 8v32.03125c0 4.425781-3.574219 8-8 8zm0 0"/><path d="m152 224c-4.425781 0-8-3.574219-8-8 0-8.824219-7.175781-16-16-16-4.425781 0-8-3.574219-8-8s3.574219-8 8-8c17.648438 0 32 14.351562 32 32 0 4.425781-3.574219 8-8 8zm0 0"/><path d="m128 200.046875h-24c-4.425781 0-8-3.574219-8-8 0-4.421875 3.574219-8 8-8h24c4.425781 0 8 3.578125 8 8 0 4.425781-3.574219 8-8 8zm0 0"/><path d="m152 256.03125c-4.425781 0-8-3.574219-8-8v-32.03125c0-4.425781 3.574219-8 8-8s8 3.574219 8 8v32.03125c0 4.425781-3.574219 8-8 8zm0 0"/><path d="m152 256.03125h-144c-4.425781 0-8-3.574219-8-8 0-4.421875 3.574219-8 8-8h144c4.425781 0 8 3.578125 8 8 0 4.425781-3.574219 8-8 8zm0 0"/><path d="m56 200.046875c-4.425781 0-8-3.574219-8-8v-29.472656c0-4.421875 3.574219-8 8-8s8 3.578125 8 8v29.472656c0 4.425781-3.574219 8-8 8zm0 0"/><path d="m104 200c-4.425781 0-8-3.574219-8-8v-29.425781c0-4.421875 3.574219-8 8-8s8 3.578125 8 8v29.425781c0 4.425781-3.574219 8-8 8zm0 0"/><path d="m80 175.96875c-35.289062 0-64-28.695312-64-63.96875 0-4.425781 3.574219-8 8-8s8 3.574219 8 8c0 26.457031 21.527344 47.96875 48 47.96875s48-21.511719 48-47.96875c0-4.425781 3.574219-8 8-8s8 3.574219 8 8c0 35.273438-28.710938 63.96875-64 63.96875zm0 0"/><path d="m64.007812 208c-2.9375 0-5.761718-1.617188-7.167968-4.425781-1.976563-3.949219-.375-8.757813 3.574218-10.734375l16-8c3.953126-1.960938 8.761719-.375 10.738282 3.574218 1.976562 3.953126.375 8.761719-3.578125 10.738282l-16 8c-1.140625.574218-2.367188.847656-3.566407.847656zm0 0"/><path d="m96 208c-2.046875 0-4.097656-.785156-5.65625-2.34375-3.128906-3.128906-3.128906-8.183594 0-11.3125l8-8c3.128906-3.128906 8.183594-3.128906 11.3125 0s3.128906 8.183594 0 11.3125l-8 8c-1.558594 1.558594-3.609375 2.34375-5.65625 2.34375zm0 0"/><path d="m64 208c-2.046875 0-4.097656-.785156-5.65625-2.34375l-8-8c-3.128906-3.128906-3.128906-8.183594 0-11.3125s8.183594-3.128906 11.3125 0l8 8c3.128906 3.128906 3.128906 8.183594 0 11.3125-1.558594 1.558594-3.609375 2.34375-5.65625 2.34375zm0 0"/><path d="m95.992188 208c-1.199219 0-2.425782-.273438-3.566407-.839844l-16-8c-3.953125-1.976562-5.554687-6.785156-3.578125-10.734375 1.984375-3.953125 6.792969-5.539062 10.738282-3.578125l16 8c3.949218 1.976563 5.550781 6.785156 3.574218 10.738282-1.40625 2.796874-4.230468 4.414062-7.167968 4.414062zm0 0"/><path d="m376 120.03125c-4.425781 0-8-3.574219-8-8v-64.03125c0-4.425781 3.574219-8 8-8s8 3.574219 8 8v64.03125c0 4.425781-3.574219 8-8 8zm0 0"/><path d="m488 120.03125c-4.425781 0-8-3.574219-8-8v-2.34375c0-4.421875 3.574219-8 8-8s8 3.578125 8 8v2.34375c0 4.425781-3.574219 8-8 8zm0 0"/><path d="m360 224c-4.425781 0-8-3.574219-8-8 0-17.648438 14.351562-32 32-32 4.425781 0 8 3.574219 8 8s-3.574219 8-8 8c-8.824219 0-16 7.175781-16 16 0 4.425781-3.574219 8-8 8zm0 0"/><path d="m408 200.046875h-24c-4.425781 0-8-3.574219-8-8 0-4.421875 3.574219-8 8-8h24c4.425781 0 8 3.578125 8 8 0 4.425781-3.574219 8-8 8zm0 0"/><path d="m360 256.03125c-4.425781 0-8-3.574219-8-8v-32.03125c0-4.425781 3.574219-8 8-8s8 3.574219 8 8v32.03125c0 4.425781-3.574219 8-8 8zm0 0"/><path d="m504 224c-4.425781 0-8-3.574219-8-8 0-8.824219-7.175781-16-16-16-4.425781 0-8-3.574219-8-8s3.574219-8 8-8c17.648438 0 32 14.351562 32 32 0 4.425781-3.574219 8-8 8zm0 0"/><path d="m480 200.046875h-24c-4.425781 0-8-3.574219-8-8 0-4.421875 3.574219-8 8-8h24c4.425781 0 8 3.578125 8 8 0 4.425781-3.574219 8-8 8zm0 0"/><path d="m504 256.03125c-4.425781 0-8-3.574219-8-8v-32.03125c0-4.425781 3.574219-8 8-8s8 3.574219 8 8v32.03125c0 4.425781-3.574219 8-8 8zm0 0"/><path d="m504 256.03125h-144c-4.425781 0-8-3.574219-8-8 0-4.421875 3.574219-8 8-8h144c4.425781 0 8 3.578125 8 8 0 4.425781-3.574219 8-8 8zm0 0"/><path d="m408 200.046875c-4.425781 0-8-3.574219-8-8v-29.472656c0-4.421875 3.574219-8 8-8s8 3.578125 8 8v29.472656c0 4.425781-3.574219 8-8 8zm0 0"/><path d="m456 200c-4.425781 0-8-3.574219-8-8v-29.425781c0-4.421875 3.574219-8 8-8s8 3.578125 8 8v29.425781c0 4.425781-3.574219 8-8 8zm0 0"/><path d="m432 175.96875c-35.289062 0-64-28.695312-64-63.96875 0-4.425781 3.574219-8 8-8s8 3.574219 8 8c0 26.457031 21.527344 47.96875 48 47.96875s48-21.511719 48-47.96875c0-4.425781 3.574219-8 8-8s8 3.574219 8 8c0 35.273438-28.710938 63.96875-64 63.96875zm0 0"/><path d="m431.992188 216c-1.519532 0-3.0625-.441406-4.433594-1.34375l-24-16c-3.679688-2.457031-4.671875-7.417969-2.214844-11.097656 2.441406-3.671875 7.398438-4.671875 11.097656-2.214844l24 16c3.679688 2.457031 4.671875 7.417969 2.214844 11.097656-1.535156 2.3125-4.082031 3.558594-6.664062 3.558594zm0 0"/><path d="m432.007812 216c-2.582031 0-5.128906-1.246094-6.664062-3.558594-2.457031-3.679687-1.464844-8.640625 2.214844-11.097656l24-16c3.679687-2.457031 8.648437-1.457031 11.097656 2.214844 2.457031 3.679687 1.464844 8.640625-2.214844 11.097656l-24 16c-1.371094.902344-2.914062 1.34375-4.433594 1.34375zm0 0"/><path d="m160 312.03125c-4.425781 0-8-3.574219-8-8 0-26.472656 21.527344-48 48-48 4.425781 0 8 3.578125 8 8 0 4.425781-3.574219 8-8 8-17.648438 0-32 14.351562-32 32 0 4.425781-3.574219 8-8 8zm0 0"/><path d="m224 272.03125h-24c-4.425781 0-8-3.574219-8-8 0-4.421875 3.574219-8 8-8h24c4.425781 0 8 3.578125 8 8 0 4.425781-3.574219 8-8 8zm0 0"/><path d="m160 344.03125c-4.425781 0-8-3.574219-8-8v-32c0-4.421875 3.574219-8 8-8s8 3.578125 8 8v32c0 4.425781-3.574219 8-8 8zm0 0"/><path d="m168 352.03125c-8.824219 0-16-7.175781-16-16 0-4.246094 3.34375-7.3125 7.585938-7.542969 4.503906-.136719 7.933593 3.328125 8.414062 7.535157 4.414062 0 8 3.585937 8 8 0 4.425781-3.574219 8.007812-8 8.007812zm0 0"/><path d="m352 312.03125c-4.425781 0-8-3.574219-8-8 0-17.648438-14.351562-32-32-32-4.425781 0-8-3.574219-8-8 0-4.421875 3.574219-8 8-8 26.472656 0 48 21.527344 48 48 0 4.425781-3.574219 8-8 8zm0 0"/><path d="m312 272.03125h-24c-4.425781 0-8-3.574219-8-8 0-4.421875 3.574219-8 8-8h24c4.425781 0 8 3.578125 8 8 0 4.425781-3.574219 8-8 8zm0 0"/><path d="m352 344.03125c-4.425781 0-8-3.574219-8-8v-32c0-4.421875 3.574219-8 8-8s8 3.578125 8 8v32c0 4.425781-3.574219 8-8 8zm0 0"/><path d="m344 352.03125c-4.425781 0-8-3.574219-8-8 0-4.421875 3.574219-8 8-8 0-4.421875 3.574219-8 8-8s8 3.578125 8 8c0 8.816406-7.175781 16-16 16zm0 0"/><path d="m344 352.03125h-176c-4.425781 0-8-3.574219-8-8 0-4.421875 3.574219-8 8-8h176c4.425781 0 8 3.578125 8 8 0 4.425781-3.574219 8-8 8zm0 0"/><path d="m224 272.03125c-4.425781 0-8-3.574219-8-8v-31.488281c0-4.421875 3.574219-8 8-8s8 3.578125 8 8v31.488281c0 4.425781-3.574219 8-8 8zm0 0"/><path d="m288 272.03125c-4.425781 0-8-3.574219-8-8v-31.488281c0-4.421875 3.574219-8 8-8s8 3.578125 8 8v31.488281c0 4.425781-3.574219 8-8 8zm0 0"/><path d="m255.992188 248.03125c-44.113282 0-79.992188-35.878906-79.992188-79.984375 0-4.421875 3.574219-8 8-8s8 3.578125 8 8c0 35.28125 28.703125 63.984375 63.992188 63.984375 35.296874 0 64.007812-28.703125 64.007812-63.984375 0-4.421875 3.574219-8 8-8s8 3.578125 8 8c0 44.105469-35.886719 79.984375-80.007812 79.984375zm0 0"/><path d="m184 176.441406c-4.425781 0-8-3.578125-8-8v-48.410156c0-4.421875 3.574219-8 8-8s8 3.578125 8 8v48.410156c0 4.414063-3.574219 8-8 8zm0 0"/><path d="m328 176.046875c-4.425781 0-8-3.574219-8-8v-48.015625c0-4.421875 3.574219-8 8-8s8 3.578125 8 8v48.015625c0 4.425781-3.574219 8-8 8zm0 0"/><path d="m328 128.03125c-4.425781 0-8-3.574219-8-8 0-13.230469-10.769531-24-24-24-4.425781 0-8-3.574219-8-8 0-4.421875 3.574219-8 8-8 22.054688 0 40 17.945312 40 40 0 4.425781-3.574219 8-8 8zm0 0"/><path d="m296 96.03125c-4.425781 0-8-3.574219-8-8v-32c0-4.421875 3.574219-8 8-8s8 3.578125 8 8v32c0 4.425781-3.574219 8-8 8zm0 0"/><path d="m296 64.03125h-48c-4.425781 0-8-3.574219-8-8 0-4.421875 3.574219-8 8-8h48c4.425781 0 8 3.578125 8 8 0 4.425781-3.574219 8-8 8zm0 0"/><path d="m184 128.03125c-4.425781 0-8-3.574219-8-8 0-39.703125 32.296875-72 72-72 4.425781 0 8 3.578125 8 8 0 4.425781-3.574219 8-8 8-30.871094 0-56 25.128906-56 56 0 4.425781-3.574219 8-8 8zm0 0"/><path d="m327.992188 152.230469c-1.535157 0-3.097657-.445313-4.472657-1.367188l-24-16.199219c-3.664062-2.480468-4.625-7.449218-2.160156-11.113281 2.480469-3.664062 7.441406-4.613281 11.113281-2.160156l24 16.203125c3.664063 2.476562 4.625 7.445312 2.160156 11.109375-1.542968 2.296875-4.074218 3.527344-6.640624 3.527344zm0 0"/><path d="m260 144.03125c-28.894531 0-53.496094-8.0625-54.519531-8.40625-4.183594-1.402344-6.457031-5.921875-5.074219-10.113281 1.394531-4.183594 5.90625-6.472657 10.113281-5.078125.234375.078125 23.265625 7.589844 49.488281 7.589844 25.425782 0 40.320313-7.101563 40.472657-7.175782 3.953125-1.910156 8.75-.296875 10.695312 3.65625 1.945313 3.953125.34375 8.71875-3.589843 10.6875-.746094.359375-18.097657 8.839844-47.585938 8.839844zm0 0"/><path d="m184.007812 152.230469c-2.566406 0-5.097656-1.230469-6.640624-3.519531-2.472657-3.664063-1.503907-8.632813 2.160156-11.109376l24-16.203124c3.679687-2.460938 8.632812-1.503907 11.113281 2.160156 2.472656 3.664062 1.503906 8.632812-2.160156 11.113281l-24 16.199219c-1.375.921875-2.9375 1.359375-4.472657 1.359375zm0 0"/><path d="m240 288.03125c-2.046875 0-4.097656-.785156-5.65625-2.34375l-16-16c-3.128906-3.128906-3.128906-8.183594 0-11.3125s8.183594-3.128906 11.3125 0l16 16c3.128906 3.128906 3.128906 8.183594 0 11.3125-1.558594 1.558594-3.609375 2.34375-5.65625 2.34375zm0 0"/><path d="m240.007812 288.03125c-2.9375 0-5.761718-1.617188-7.167968-4.421875-1.976563-3.953125-.375-8.761719 3.574218-10.738281l16-8c3.953126-1.960938 8.761719-.375 10.738282 3.578125 1.976562 3.949219.375 8.757812-3.578125 10.734375l-16 8c-1.140625.578125-2.367188.847656-3.566407.847656zm0 0"/><path d="m272 288.03125c-2.046875 0-4.097656-.785156-5.65625-2.34375-3.128906-3.128906-3.128906-8.183594 0-11.3125l16-16c3.128906-3.128906 8.183594-3.128906 11.3125 0s3.128906 8.183594 0 11.3125l-16 16c-1.558594 1.558594-3.609375 2.34375-5.65625 2.34375zm0 0"/><path d="m271.992188 288.03125c-1.199219 0-2.425782-.269531-3.566407-.839844l-16-8c-3.953125-1.976562-5.554687-6.785156-3.578125-10.734375 1.984375-3.953125 6.785156-5.535156 10.738282-3.578125l16 8c3.949218 1.976563 5.550781 6.785156 3.574218 10.738282-1.40625 2.796874-4.230468 4.414062-7.167968 4.414062zm0 0"/><path d="m504 80c-4.425781 0-8-3.574219-8-8 0-30.871094-25.128906-56-56-56-14.257812 0-26.894531 7.742188-34.992188 14.238281-3.457031 2.769531-8.480468 2.203125-11.246093-1.230469-2.769531-3.449218-2.210938-8.488281 1.230469-11.246093 14.480468-11.617188 30.039062-17.761719 45.007812-17.761719 39.703125 0 72 32.296875 72 72 0 4.425781-3.574219 8-8 8zm0 0"/><path d="m504 160c-4.425781 0-8-3.574219-8-8 0-30.871094-25.128906-56-56-56-4.425781 0-8-3.574219-8-8s3.574219-8 8-8c39.703125 0 72 32.296875 72 72 0 4.425781-3.574219 8-8 8zm0 0"/><path d="m376 96c-4.425781 0-8-3.574219-8-8s3.574219-8 8-8c8.824219 0 16-7.175781 16-16 0-4.425781 3.574219-8 8-8s8 3.574219 8 8c0 17.648438-14.351562 32-32 32zm0 0"/><path d="m376 56c-4.425781 0-8-3.574219-8-8 0-17.648438 14.351562-32 32-32 4.425781 0 8 3.574219 8 8s-3.574219 8-8 8c-8.824219 0-16 7.175781-16 16 0 4.425781-3.574219 8-8 8zm0 0"/><path d="m424 96c-17.648438 0-32-14.351562-32-32 0-4.425781 3.574219-8 8-8s8 3.574219 8 8c0 8.824219 7.175781 16 16 16 4.425781 0 8 3.574219 8 8s-3.574219 8-8 8zm0 0"/><path d="m400 72c-4.425781 0-8-3.574219-8-8v-40c0-4.425781 3.574219-8 8-8s8 3.574219 8 8v40c0 4.425781-3.574219 8-8 8zm0 0"/><path d="m504 160c-4.425781 0-8-3.574219-8-8v-80c0-4.425781 3.574219-8 8-8s8 3.574219 8 8v80c0 4.425781-3.574219 8-8 8zm0 0"/><path d="m440 96h-16c-4.425781 0-8-3.574219-8-8s3.574219-8 8-8h16c4.425781 0 8 3.574219 8 8s-3.574219 8-8 8zm0 0"/><path d="m16 88c-4.425781 0-8-3.574219-8-8v-3.96875c0-4.421875 3.574219-8 8-8s8 3.578125 8 8v3.96875c0 4.425781-3.574219 8-8 8zm0 0"/></svg>